#tb 0: 1/25
#media_type 0: video
#codec_id 0: rawvideo
#dimensions 0: 352x288
#sar 0: 0/1
0,          0,          0,        1,   152064, 0xd604d440
0,          1,          1,        1,   152064, 0x08ef262c
0,          2,          2,        1,   152064, 0x992fca8e
0,          3,          3,        1,   152064, 0x5a02ee15
0,          4,          4,        1,   152064, 0xf15d5c66
0,          5,          5,        1,   152064, 0x360dda12
0,          6,          6,        1,   152064, 0x18b54985
0,          7,          7,        1,   152064, 0xf12b6cde
0,          8,          8,        1,   152064, 0x3b2e63f7
0,          9,          9,        1,   152064, 0x140abcfd
